HIERARCHY
ROOT Bip001_Pelvis
{
  OFFSET -1.09727 91.6061 -4.11886
  CHANNELS 6 Xposition Yposition Zposition Zrotation Xrotation Yrotation
  JOINT Bip001_Spine
  {
    OFFSET 1.44608e-005 10.4157 -0.0118244
    CHANNELS 3 Zrotation Xrotation Yrotation
    JOINT Bip001_L_Thigh
    {
      OFFSET 11.2582 -10.4157 0.0118432
      CHANNELS 3 Zrotation Xrotation Yrotation
      JOINT Bip001_L_Calf
      {
        OFFSET -0.720717 -44.8687 0.366937
        CHANNELS 3 Zrotation Xrotation Yrotation
        JOINT Bip001_L_Foot
        {
          OFFSET -0.664439 -41.3745 -3.62995
          CHANNELS 3 Zrotation Xrotation Yrotation
          JOINT Bip001_L_Toe0
          {
            OFFSET 0.0541047 -10.4146 13.4033
            CHANNELS 3 Zrotation Xrotation Yrotation
            End Site
            {
              OFFSET -1.04503e-005 0 7.70137
            }
          }
        }
      }
    }
    JOINT Bip001_R_Thigh
    {
      OFFSET -11.2582 -10.4156 0.0118122
      CHANNELS 3 Zrotation Xrotation Yrotation
      JOINT Bip001_R_Calf
      {
        OFFSET 0.72059 -44.8687 0.36676
        CHANNELS 3 Zrotation Xrotation Yrotation
        JOINT Bip001_R_Foot
        {
          OFFSET 0.664321 -41.3745 -3.62979
          CHANNELS 3 Zrotation Xrotation Yrotation
          JOINT Bip001_R_Toe0
          {
            OFFSET -0.05417 -10.4146 13.4033
            CHANNELS 3 Zrotation Xrotation Yrotation
            End Site
            {
              OFFSET -1.04873e-005 0 7.70137
            }
          }
        }
      }
    }
    JOINT Bip001_Spine1
    {
      OFFSET 1.90638e-005 14.8539 1.10727
      CHANNELS 3 Zrotation Xrotation Yrotation
      JOINT Bip001_Spine2
      {
        OFFSET 2.28934e-005 14.7848 -1.7233
        CHANNELS 3 Zrotation Xrotation Yrotation
        JOINT Bip001_Neck
        {
          OFFSET 2.24514e-005 15.6905 -0.498826
          CHANNELS 3 Zrotation Xrotation Yrotation
          JOINT Bip001_L_Clavicle
          {
            OFFSET 6.17691 -0.000591152 0.00852867
            CHANNELS 3 Zrotation Xrotation Yrotation
            JOINT Bip001_L_UpperArm
            {
              OFFSET 11.773 -0.0611878 0.00197697
              CHANNELS 3 Zrotation Xrotation Yrotation
              JOINT Bip001_L_Forearm
              {
                OFFSET 26.4515 0.0817566 -2.1958
                CHANNELS 3 Zrotation Xrotation Yrotation
                JOINT Bip001_L_Hand
                {
                  OFFSET 32.8677 0.156744 1.67112
                  CHANNELS 3 Zrotation Xrotation Yrotation
                  JOINT Bip001_L_Finger0
                  {
                    OFFSET 6.16268 -2.25225 6.01675
                    CHANNELS 3 Zrotation Xrotation Yrotation
                    End Site
                    {
                      OFFSET 4.30499 -1.46662 0.618149
                    }
                  }
                  JOINT Bip001_L_Finger1
                  {
                    OFFSET 11.2957 -0.718373 -0.201963
                    CHANNELS 3 Zrotation Xrotation Yrotation
                    End Site
                    {
                      OFFSET 6.31952 -0.405162 -0.0802303
                    }
                  }
                }
              }
            }
          }
          JOINT Bip001_R_Clavicle
          {
            OFFSET -6.17691 -0.000574027 0.00851165
            CHANNELS 3 Zrotation Xrotation Yrotation
            JOINT Bip001_R_UpperArm
            {
              OFFSET -11.773 -0.0611516 0.00194365
              CHANNELS 3 Zrotation Xrotation Yrotation
              JOINT Bip001_R_Forearm
              {
                OFFSET -26.4514 0.0822336 -2.19736
                CHANNELS 3 Zrotation Xrotation Yrotation
                JOINT Bip001_R_Hand
                {
                  OFFSET -32.8677 0.156816 1.67144
                  CHANNELS 3 Zrotation Xrotation Yrotation
                  JOINT Bip001_R_Finger0
                  {
                    OFFSET -6.1627 -2.25224 6.01672
                    CHANNELS 3 Zrotation Xrotation Yrotation
                    End Site
                    {
                      OFFSET -4.30499 -1.46661 0.618135
                    }
                  }
                  JOINT Bip001_R_Finger1
                  {
                    OFFSET -11.2958 -0.718343 -0.201994
                    CHANNELS 3 Zrotation Xrotation Yrotation
                    End Site
                    {
                      OFFSET -6.31952 -0.405146 -0.0802477
                    }
                  }
                }
              }
            }
          }
          JOINT Bip001_Head
          {
            OFFSET 1.11782e-005 11.4912 2.09908
            CHANNELS 3 Zrotation Xrotation Yrotation
            End Site
            {
              OFFSET 2.95144e-005 21.2823 -2.83069e-005
            }
          }
        }
      }
    }
  }
}
MOTION
Frames:	13
Frame Time:	0.0333333
-1.02796 91.5962 -4.04496 -1.02081 1.27718 9.2414 0.231789 -0.0795402 -0.211215 4.32227 -15.5596 3.7746 -0.0250107 31.6248 -2.78539 -3.33859 -10.4982 5.37389 -3.16389e-007 4.50588e-008 -1.88197e-008 -1.21213 -15.3303 1.0904 -0.177527 35.2664 -2.75969 0.602408 -18.7396 -8.3441 -4.26654e-007 -4.19318e-009 -7.63061e-009 0.463302 -0.161151 -0.422295 0.463322 -0.161154 -0.422306 -2.95281 -8.47561 -1.76442 -26.2091 13.2305 -9.57963 -42.6072 22.452 4.04889 -1.98933 0.412472 -20.372 5.57704 14.6955 -3.1439 -4.77083e-015 3.18055e-015 -1.59028e-015 -4.77083e-015 3.18056e-015 1.59028e-015 28.0882 13.9754 12.1416 48.9571 46.2362 -4.80818 -1.45191 -2.04712 21.9789 -7.27722 -13.846 -9.48072 -8.82781e-032 3.18055e-015 1.59028e-015 -1.76556e-031 3.18056e-015 3.18055e-015 1.26451 1.50724 -0.254209 
-1.00968 91.5787 -4.0471 -1.02199 1.24929 9.21505 0.162169 -0.0573419 -0.0838366 4.30236 -15.6808 3.54069 -0.0308295 31.8021 -3.0131 -3.21024 -10.473 5.64892 -3.16389e-007 4.50588e-008 -1.88197e-008 -0.91187 -15.3382 1.81581 -0.226672 35.3405 -3.1972 0.873976 -18.9192 -8.50138 -4.26654e-007 -4.19318e-009 -7.63061e-009 0.324264 -0.115092 -0.167866 0.324293 -0.115061 -0.167863 -2.73483 -9.19157 -2.5076 -26.596 13.5113 -8.55438 -42.0874 23.2199 3.40597 -1.98475 0.412795 -20.2508 5.62726 14.5042 -3.20399 -6.36111e-015 0 -1.59028e-015 -3.18055e-015 0 -4.77083e-015 28.5187 15.2204 12.8634 49.0788 42.7952 -6.06371 -1.3475 -2.06491 22.7538 -7.13114 -11.5098 -9.00996 -1.76556e-031 3.18055e-015 3.18055e-015 3.18055e-015 3.18056e-015 1.59028e-015 1.21723 1.45571 -0.33249 
-0.992814 91.5729 -4.01356 -1.02346 1.18979 9.12929 0.139928 0.00853783 0.0967223 4.21491 -15.7249 3.16261 -0.0201718 31.863 -3.05199 -3.30927 -10.5265 5.96229 -3.16389e-007 4.50588e-008 -1.88197e-008 -0.948511 -15.3186 1.60712 -0.22553 35.3364 -3.18325 0.843562 -18.8454 -8.46979 -4.26654e-007 -4.19318e-009 -7.63061e-009 0.279879 0.0171995 0.193309 0.279882 0.017185 0.193276 -2.95416 -10.5565 -3.33331 -26.6683 14.3646 -7.16256 -41.6758 23.7649 2.24667 -1.96827 0.401423 -20.0533 5.43323 14.4138 -3.11869 -3.18055e-015 -6.36111e-015 -0 -1.59028e-015 -6.36111e-015 1.59028e-015 28.9249 16.938 13.1464 49.2702 41.3823 -7.38723 -1.19079 -2.08781 23.9049 -8.04971 -11.3791 -8.78663 4.77083e-015 9.54166e-015 1.59028e-015 9.54166e-015 1.59028e-014 -1.59028e-015 1.22862 1.53072 -0.372633 
-0.988092 91.5711 -3.96747 -1.03086 1.16435 9.0371 0.192085 0.063258 0.402575 4.02582 -15.7611 2.6965 -0.0139384 31.8001 -3.09489 -3.29839 -10.5117 6.24258 -3.16389e-007 4.50588e-008 -1.88197e-008 -1.21384 -15.3057 0.914419 -0.19353 35.337 -2.8293 0.737389 -18.8909 -8.37816 -4.26654e-007 -4.19318e-009 -7.63061e-009 0.383587 0.127852 0.805015 0.383757 0.127828 0.805039 -3.75111 -12.1098 -4.42302 -26.5647 15.3908 -5.55245 -41.3281 24.5656 0.885 -1.96449 0.402683 -20.0292 5.40759 14.1161 -3.05504 -1.59028e-015 0 -3.18055e-015 -4.77083e-015 6.36111e-015 -1.59028e-015 29.2446 18.8312 13.5227 50.1121 44.8038 -9.54268 -0.987873 -2.11202 25.3858 -11.0016 -16.2534 -9.42782 1.59028e-015 0 -0 -1.59028e-015 -3.18056e-015 -0 0.856294 1.59248 -0.240035 
-0.970446 91.5826 -3.92234 -1.05119 1.15806 8.96229 0.226855 0.0691209 0.712293 3.93755 -15.7329 2.35903 0.0541011 31.7474 -1.85669 -3.65431 -10.484 5.04606 -3.16389e-007 4.50588e-008 -1.88197e-008 -1.37168 -15.2027 0.43851 -0.203617 35.2876 -2.64756 0.652226 -18.9066 -8.38387 -4.26654e-007 -4.19318e-009 -7.63061e-009 0.452856 0.140947 1.42423 0.452863 0.140925 1.42424 -4.61182 -13.6801 -5.87483 -26.4298 16.2797 -3.5679 -41.2116 25.3424 -0.255271 -1.98392 0.430932 -20.308 5.59458 13.6104 -2.91069 -3.18055e-015 -6.36111e-015 3.18055e-015 -3.18055e-015 -6.36111e-015 3.18055e-015 29.7497 20.9602 14.1419 51.3425 47.6976 -12.2126 -0.803955 -2.12919 26.7218 -13.806 -20.3997 -10.4483 1.59028e-015 0 -1.59028e-015 0 3.18056e-015 -0 0.974999 1.76974 -0.255181 
-0.949429 91.5941 -3.89872 -1.07186 1.17458 8.90867 0.281478 -0.0170222 1.02586 3.45187 -15.6762 0.877874 0.108555 31.6561 -1.41527 -3.85043 -10.3804 5.73936 -3.16389e-007 4.50588e-008 -1.88197e-008 -1.35508 -15.0309 0.472427 -0.286656 35.2286 -2.99616 0.714475 -18.8532 -8.40426 -4.26654e-007 -4.19318e-009 -7.63061e-009 0.563385 -0.0290739 2.05169 0.563404 -0.0290768 2.05167 -4.66795 -16.4939 -7.83569 -27.5813 17.9124 -0.48779 -41.382 25.9066 -1.32962 -1.98513 0.43902 -20.3479 6.32678 12.9932 -3.12872 -3.18055e-015 -6.36111e-015 -0 -3.18055e-015 0 -0 28.7243 24.3692 15.0032 52.9775 43.6437 -14.7312 -0.593248 -2.14236 28.2371 -13.7218 -18.0767 -11.0809 -3.18055e-015 -6.36111e-015 -0 -3.53113e-031 -6.36111e-015 -3.18055e-015 1.03487 1.81492 -0.274207 
-0.913305 91.6028 -3.89737 -1.08014 1.21363 8.84941 0.290699 -0.171453 1.27051 2.92385 -15.5756 -0.93384 0.264517 31.6862 0.0129456 -4.3871 -10.4654 5.92243 -3.16389e-007 4.50588e-008 -1.88197e-008 -1.05191 -14.8261 1.31715 -0.464531 35.1564 -3.96841 1.09195 -18.7512 -8.3752 -4.26654e-007 -4.19318e-009 -7.63061e-009 0.559625 -0.336808 2.54171 0.559603 -0.336833 2.54172 -7.28484 -15.4588 -9.93633 -24.7953 16.9728 -0.16233 -40.9241 24.6101 -2.52511 -1.9586 0.407735 -19.9882 6.00569 14.2319 -4.16895 3.18055e-015 0 -0 6.36111e-015 0 -0 29.1674 24.3612 17.5938 54.8652 38.0763 -16.8446 -0.259461 -2.15131 30.6368 -13.0102 -9.93583 -12.8072 -1.59028e-015 -6.36111e-015 -0 -1.59028e-015 -6.36111e-015 -1.59028e-015 1.15792 1.96757 -0.312104 
-0.889864 91.6076 -3.91356 -1.1031 1.23812 8.79615 0.286167 -0.387189 1.30657 2.51681 -15.3789 -2.24841 0.374074 31.6637 1.02425 -4.69757 -10.3827 6.02273 -3.16389e-007 4.50588e-008 -1.88197e-008 0.3267 -14.5993 5.43098 -0.995078 35.2239 -8.06059 2.64607 -18.4163 -7.94523 -4.26654e-007 -4.19318e-009 -7.63061e-009 0.581508 -0.767729 2.61524 0.581511 -0.767725 2.6153 -9.03211 -16.1358 -12.9108 -23.2852 17.3298 1.36769 -40.1478 23.9286 -2.85168 -2.10641 0.468594 -21.5787 6.69957 15.2641 -5.50437 1.76556e-031 -3.18055e-015 3.18055e-015 -3.53113e-031 6.36111e-015 3.18055e-015 26.319 25.8447 21.4149 58.0725 38.24 -19.7855 0.404419 -2.12849 35.4332 -12.0654 5.10444 -14.5182 0 6.36111e-015 -0 1.32417e-031 3.18056e-015 -2.38542e-015 1.26909 2.05902 -0.363726 
-0.870044 91.6107 -3.88464 -1.1113 1.27151 8.71007 0.375113 -0.30899 1.12609 2.51754 -15.3584 -1.87473 0.460889 31.5582 1.82347 -4.9982 -10.3174 4.99956 -3.16389e-007 4.50588e-008 -1.88197e-008 0.877086 -14.7129 7.40597 -1.23199 35.3254 -9.68411 3.29071 -18.2759 -7.85742 -4.26654e-007 -4.19318e-009 -7.63061e-009 0.756271 -0.610597 2.25424 0.756267 -0.610576 2.25422 -9.05096 -17.0476 -15.5904 -22.9753 17.8368 2.36415 -41.5552 29.3074 -1.41266 -2.58089 0.700725 -26.8357 15.8534 12.4291 -6.16982 -6.36111e-015 6.36111e-015 -3.18055e-015 -6.36111e-015 6.36111e-015 -0 20.1233 26.2429 25.1024 58.3117 50.634 -17.9984 0.898202 -2.07389 39.011 -7.78079 15.256 -12.2916 3.18055e-015 -3.97569e-016 -0 -1.37935e-033 3.97569e-016 1.98785e-016 1.03112 2.18473 -0.301899 
-0.874589 91.6106 -3.72644 -1.17912 1.32753 8.62585 0.627711 0.513837 0.400483 2.51733 -15.9757 -1.06046 0.58423 31.3597 2.96677 -5.31009 -10.2525 3.8346 -3.16389e-007 4.50588e-008 -1.88197e-008 1.37901 -15.7193 9.70556 -1.4253 35.5523 -11.0266 3.85831 -18.1735 -7.72861 -4.26654e-007 -4.19318e-009 -7.63061e-009 1.25196 1.03189 0.795258 1.25198 1.03186 0.795266 -6.74325 -17.0169 -16.9173 -24.6935 16.8849 2.87478 -43.2673 33.425 0.732999 -3.0593 0.993789 -32.4173 27.2005 6.55064 -5.86036 -3.18055e-015 3.18055e-015 -6.36111e-015 7.06225e-031 6.36111e-015 -6.36111e-015 13.5894 25.0078 28.4824 37.3289 69.6169 4.44522 0.802059 -2.08415 38.2823 0.0429583 15.3018 -9.98894 -1.59028e-015 6.36111e-015 -7.95139e-016 -1.59028e-015 3.18056e-015 -7.95139e-016 1.10064 2.03355 -0.307986 
-0.86686 91.6103 -3.54939 -1.17296 1.32993 8.59038 0.868967 1.36434 -0.434683 2.8035 -16.5252 0.874184 0.649991 31.0927 3.53333 -5.3873 -10.1603 2.17832 -3.16389e-007 4.50588e-008 -1.88197e-008 0.405825 -16.8517 7.57166 -1.18792 35.6391 -8.58364 3.03794 -18.2249 -7.518 -4.26654e-007 -4.19318e-009 -7.63061e-009 1.74894 2.7217 -0.89035 1.74896 2.72172 -0.89034 -5.93683 -16.2981 -18.2129 -25.0223 15.6442 3.35505 -44.2199 35.1321 1.93966 -3.39291 1.23932 -36.5365 36.5502 1.73575 -5.53236 3.18055e-015 3.18055e-015 -0 3.18055e-015 3.18056e-015 -3.18055e-015 10.8791 23.587 29.4066 11.2391 68.2363 33.1458 0.229216 -2.13247 34.0811 11.9394 14.0046 -11.0014 7.95139e-016 0 -1.19271e-015 7.95139e-016 -3.18056e-015 -1.19271e-015 1.17904 2.10207 -0.345212 
-0.860546 91.6128 -3.52453 -1.25177 1.26681 8.6159 0.87314 1.36979 -1.01885 3.89222 -16.2836 4.30683 0.559884 31.0925 2.66027 -4.91642 -10.1301 0.479168 -3.16389e-007 4.50588e-008 -1.88197e-008 0.830349 -16.8048 8.70252 -1.21889 35.584 -9.25237 3.22715 -18.0931 -7.35351 -4.26654e-007 -4.19318e-009 -7.63061e-009 1.76333 2.72348 -2.05831 1.76333 2.72345 -2.05832 -4.5091 -14.9152 -19.6419 -25.7921 13.4375 3.91385 -45.3349 33.4672 3.00463 -3.61464 1.42448 -39.4089 41.9201 1.06344 -6.60056 6.36111e-015 -6.36111e-015 -0 6.36111e-015 -7.95139e-015 -0 10.1516 22.3823 30.2065 12.0283 59.9562 35.7871 -0.302621 -2.13948 30.1914 19.3893 10.6276 -17.5596 7.95139e-016 1.59028e-015 -1.39149e-015 7.95139e-016 3.18056e-015 1.39149e-015 1.05877 2.56366 -0.212614 
-0.83695 91.6116 -3.48176 -1.27431 1.3067 8.67004 0.852376 1.57669 -1.415 5.5168 -16.1822 9.82125 0.133159 31.0185 -1.27676 -3.52384 -10.2411 -0.151225 -3.16389e-007 4.50588e-008 -1.88197e-008 1.30148 -17.0491 10.0965 -1.35358 35.6417 -10.2882 3.61909 -17.9797 -7.16725 -4.26654e-007 -4.19318e-009 -7.63061e-009 1.74438 3.13156 -2.85501 1.74437 3.13155 -2.85503 -3.84135 -12.0062 -20.6853 -25.4114 9.85828 4.95681 -44.6581 29.5779 2.97891 -3.83981 1.63308 -42.4593 44.8172 3.7434 -9.0648 -6.36111e-015 -4.77083e-015 6.36111e-015 -6.36111e-015 -6.36111e-015 3.18055e-015 12.6257 20.9692 31.2613 18.722 48.2098 31.9927 -0.589539 -2.12667 28.0791 18.1083 6.16974 -19.0138 -1.59028e-015 3.97569e-016 -2.18663e-015 -3.18055e-015 7.95139e-016 -7.95139e-016 1.02305 2.37793 -0.273702 
